<svg width="78" height="65" viewBox="0 0 78 65" fill="none" xmlns="http://www.w3.org/2000/svg">
<path d="M76.9999 36.7646V50.1764C76.9999 55.9882 62.989 63.5882 45.7057 63.5882C28.4224 63.5882 14.4116 55.9882 14.4116 50.1764V38.9999" stroke="white" stroke-width="2" stroke-linecap="round" stroke-linejoin="round"/>
<path d="M15.7261 40.1579C19.5931 45.2901 31.552 50.1049 45.7058 50.1049C62.9891 50.1049 77 42.9252 77 36.7558C77 33.2911 72.5875 29.4955 65.6625 26.8311" stroke="white" stroke-width="2" stroke-linecap="round" stroke-linejoin="round"/>
<path d="M63.5882 14.4121V27.8239C63.5882 33.6356 49.5774 41.2356 32.2941 41.2356C15.0108 41.2356 1 33.6356 1 27.8239V14.4121" stroke="white" stroke-width="2" stroke-linecap="round" stroke-linejoin="round"/>
<path fill-rule="evenodd" clip-rule="evenodd" d="M32.2941 27.752C49.5774 27.752 63.5882 20.5722 63.5882 14.4028C63.5882 8.22894 49.5774 1 32.2941 1C15.0108 1 1 8.22894 1 14.4028C1 20.5722 15.0108 27.752 32.2941 27.752Z" stroke="white" stroke-width="2" stroke-linecap="round" stroke-linejoin="round"/>
</svg>
