<svg width="44" height="37" viewBox="0 0 44 37" fill="none" xmlns="http://www.w3.org/2000/svg">
<path d="M43.0003 20.7656V28.1774C43.0003 31.3892 35.2575 35.5892 25.7062 35.5892C16.1549 35.5892 8.41211 31.3892 8.41211 28.1774V22.0009" stroke="#FF9029" stroke-width="2" stroke-linecap="round" stroke-linejoin="round"/>
<path d="M9.1377 22.6402C11.2748 25.4764 17.8836 28.1373 25.7055 28.1373C35.2568 28.1373 42.9996 24.1695 42.9996 20.7601C42.9996 18.8454 40.5611 16.7479 36.7342 15.2754" stroke="#FF9029" stroke-width="2" stroke-linecap="round" stroke-linejoin="round"/>
<path d="M35.5882 8.41211V15.8239C35.5882 19.0356 27.8454 23.2356 18.2941 23.2356C8.74282 23.2356 1 19.0356 1 15.8239V8.41211" stroke="#FF9029" stroke-width="2" stroke-linecap="round" stroke-linejoin="round"/>
<path fill-rule="evenodd" clip-rule="evenodd" d="M18.2941 15.784C27.8454 15.784 35.5882 11.8162 35.5882 8.40682C35.5882 4.99494 27.8454 1 18.2941 1C8.74282 1 1 4.99494 1 8.40682C1 11.8162 8.74282 15.784 18.2941 15.784Z" stroke="#FF9029" stroke-width="2" stroke-linecap="round" stroke-linejoin="round"/>
</svg>
