<svg width="45" height="32" viewBox="0 0 45 32" fill="none" xmlns="http://www.w3.org/2000/svg">
<path d="M35.9797 7.9445C35.697 11.8672 32.7858 14.889 29.6111 14.889C26.4365 14.889 23.5204 11.8681 23.2425 7.9445C22.953 3.86364 25.7871 1 29.6111 1C33.4352 1 36.2692 3.93791 35.9797 7.9445Z" stroke="white" stroke-width="2" stroke-linecap="round" stroke-linejoin="round"/>
<path d="M29.6112 20.4443C23.451 20.4443 17.5271 23.4951 16.0431 29.4364C15.8465 30.2224 16.3409 31 17.1509 31H42.0724C42.8825 31 43.374 30.2224 43.1802 29.4364C41.6962 23.3999 35.7723 20.4443 29.6112 20.4443Z" stroke="white" stroke-width="2" stroke-miterlimit="10"/>
<path d="M17.0958 9.60537C16.8757 12.5609 14.5829 14.8886 12.1114 14.8886C9.63983 14.8886 7.34323 12.5619 7.12692 9.60537C6.90215 6.53058 9.13387 4.33301 12.1114 4.33301C15.0889 4.33301 17.3206 6.587 17.0958 9.60537Z" stroke="white" stroke-width="2" stroke-linecap="round" stroke-linejoin="round"/>
<path d="M17.6668 20.9554C15.9379 20.1849 14.0338 19.8887 12.0157 19.8887C7.03513 19.8887 2.23651 22.2969 1.03446 26.9877C0.876422 27.6081 1.27679 28.2221 1.93193 28.2221H12.6862" stroke="white" stroke-width="2" stroke-miterlimit="10" stroke-linecap="round"/>
</svg>
