<svg width="45" height="32" viewBox="0 0 45 32" fill="none" xmlns="http://www.w3.org/2000/svg">
<path d="M35.9802 7.9445C35.6975 11.8672 32.7862 14.889 29.6116 14.889C26.4369 14.889 23.5209 11.8681 23.243 7.9445C22.9535 3.86364 25.7875 1 29.6116 1C33.4356 1 36.2697 3.93791 35.9802 7.9445Z" stroke="#EE29FF" stroke-width="2" stroke-linecap="round" stroke-linejoin="round"/>
<path d="M29.6112 20.4453C23.451 20.4453 17.5271 23.4961 16.0431 29.4374C15.8465 30.2234 16.3409 31.0009 17.1509 31.0009H42.0724C42.8825 31.0009 43.374 30.2234 43.1802 29.4374C41.6962 23.4009 35.7723 20.4453 29.6112 20.4453Z" stroke="#EE29FF" stroke-width="2" stroke-miterlimit="10"/>
<path d="M17.0958 9.60634C16.8757 12.5619 14.5829 14.8896 12.1114 14.8896C9.63983 14.8896 7.34323 12.5628 7.12692 9.60634C6.90215 6.53156 9.13387 4.33398 12.1114 4.33398C15.0889 4.33398 17.3206 6.58798 17.0958 9.60634Z" stroke="#EE29FF" stroke-width="2" stroke-linecap="round" stroke-linejoin="round"/>
<path d="M17.6668 20.9554C15.9379 20.1849 14.0338 19.8887 12.0157 19.8887C7.03513 19.8887 2.23651 22.2969 1.03446 26.9877C0.876422 27.6081 1.27679 28.2221 1.93193 28.2221H12.6862" stroke="#EE29FF" stroke-width="2" stroke-miterlimit="10" stroke-linecap="round"/>
</svg>
