<svg width="30" height="31" viewBox="0 0 30 31" fill="none" xmlns="http://www.w3.org/2000/svg">
<path d="M3.75036 10.6564C3.75022 9.53236 4.02047 8.42595 4.53679 7.43665C5.05311 6.44735 5.79931 5.60618 6.70827 4.98881C7.61723 4.37143 8.66045 3.9972 9.7441 3.89979C10.8277 3.80237 11.9178 3.98482 12.9163 4.43073C13.9148 4.87664 14.7903 5.57202 15.4642 6.45432C16.1381 7.33663 16.5892 8.37819 16.7769 9.48532C16.9646 10.5925 16.8831 11.7304 16.5396 12.7969C16.1961 13.8634 15.6014 14.8249 14.8091 15.595C16.3031 16.3442 17.6003 17.4546 18.5906 18.832C19.5809 20.2095 20.2351 21.8134 20.4979 23.5078C20.5268 23.6963 20.5195 23.8889 20.4764 24.0745C20.4333 24.2602 20.3553 24.4352 20.2467 24.5897C20.1381 24.7441 20.0012 24.875 19.8437 24.9747C19.6862 25.0745 19.5113 25.1412 19.3288 25.1711C19.1463 25.201 18.96 25.1935 18.7803 25.149C18.6007 25.1044 18.4313 25.0238 18.2818 24.9116C18.1324 24.7994 18.0057 24.6579 17.9092 24.4952C17.8126 24.3324 17.748 24.1516 17.7191 23.9631C17.4379 22.1424 16.5377 20.485 15.1803 19.2885C13.8229 18.0919 12.0971 17.4347 10.3129 17.4347C8.52863 17.4347 6.80285 18.0919 5.44542 19.2885C4.08799 20.485 3.18784 22.1424 2.90661 23.9631C2.87755 24.1516 2.81285 24.3324 2.71618 24.4951C2.61951 24.6578 2.49278 24.7992 2.34322 24.9113C2.19366 25.0234 2.0242 25.104 1.84452 25.1484C1.66483 25.1928 1.47844 25.2002 1.29598 25.1702C1.11353 25.1401 0.938581 25.0733 0.781134 24.9734C0.623686 24.8735 0.486819 24.7425 0.378349 24.588C0.269878 24.4335 0.191928 24.2583 0.148949 24.0727C0.10597 23.887 0.0988027 23.6944 0.127858 23.5059C0.390985 21.8121 1.04544 20.2089 2.03573 18.8321C3.02602 17.4554 4.32297 16.3456 5.81661 15.597C5.16349 14.9633 4.64314 14.1979 4.28774 13.348C3.93233 12.4982 3.74944 11.5821 3.75036 10.6564ZM20.6254 7.7501C21.7148 7.75089 22.7805 8.07844 23.6933 8.69299C24.606 9.30753 25.3265 10.1827 25.7672 11.2121C26.208 12.2416 26.35 13.3811 26.1762 14.4924C26.0023 15.6037 25.5201 16.6389 24.7879 17.4725C25.9291 18.058 26.9432 18.8772 27.7684 19.8805C28.5936 20.8837 29.2126 22.05 29.5879 23.3082C29.6622 23.5525 29.6726 23.8127 29.6182 24.0625C29.5637 24.3123 29.4462 24.5427 29.2777 24.7305C29.1092 24.9182 28.8956 25.0565 28.6587 25.1313C28.4217 25.2062 28.1698 25.2149 27.9285 25.1566C27.6874 25.0986 27.4654 24.976 27.2847 24.8012C27.104 24.6264 26.971 24.4055 26.8991 24.1607C26.5631 23.0374 25.9507 22.0234 25.1218 21.2178C24.293 20.4123 23.276 19.8428 22.1704 19.565C21.8633 19.4884 21.5902 19.3072 21.3949 19.0506C21.1997 18.794 21.0937 18.477 21.0941 18.1506V17.4686C21.0939 17.1981 21.1669 16.9329 21.3047 16.7028C21.4425 16.4728 21.6397 16.2871 21.8741 16.1666C22.4425 15.8755 22.899 15.3944 23.1694 14.8013C23.4398 14.2083 23.5083 13.5382 23.3636 12.9C23.219 12.2617 22.8697 11.6927 22.3726 11.2854C21.8755 10.8781 21.2598 10.6564 20.6254 10.6564C20.2524 10.6564 19.8947 10.5033 19.631 10.2307C19.3673 9.95823 19.2191 9.58862 19.2191 9.20323C19.2191 8.81784 19.3673 8.44823 19.631 8.17571C19.8947 7.9032 20.2524 7.7501 20.6254 7.7501ZM10.3129 6.78135C9.81347 6.76968 9.31686 6.86123 8.85219 7.05061C8.38751 7.23999 7.96413 7.5234 7.60691 7.88419C7.24969 8.24497 6.96582 8.67587 6.77197 9.15158C6.57812 9.62729 6.4782 10.1382 6.47808 10.6544C6.47795 11.1706 6.57763 11.6815 6.77124 12.1574C6.96486 12.6332 7.24852 13.0642 7.60557 13.4252C7.96262 13.7862 8.38586 14.0698 8.85044 14.2594C9.31503 14.449 9.81159 14.5408 10.311 14.5294C11.2908 14.507 12.2232 14.0892 12.9086 13.3653C13.5939 12.6414 13.9778 11.669 13.9781 10.6563C13.9783 9.64362 13.5949 8.67105 12.9099 7.94682C12.2248 7.22259 11.2927 6.80425 10.3129 6.78135Z" fill="white"/>
</svg>
