<svg width="364" height="365" viewBox="0 0 364 365" fill="none" xmlns="http://www.w3.org/2000/svg">
<path d="M167.779 362.271C165.569 365.511 160.66 365.061 159.075 361.474L134.414 305.662C133.31 303.163 130.405 302.013 127.889 303.079L71.7099 326.892C68.0994 328.422 64.2128 325.39 64.8187 321.515L74.2466 261.23C74.6687 258.531 72.8464 255.993 70.1541 255.53L10.019 245.189C6.15424 244.525 4.5239 239.873 7.12823 236.941L47.6521 191.323C49.4664 189.281 49.3056 186.16 47.2909 184.315L2.29276 143.104C-0.599116 140.456 0.544399 135.661 4.32033 134.603L63.074 118.135C65.7045 117.398 67.2563 114.686 66.559 112.045L50.9844 53.048C49.9834 49.2565 53.5378 45.8409 57.2865 46.992L115.616 64.9035C118.228 65.7054 120.999 64.2628 121.841 61.6638L140.635 3.61243C141.842 -0.118352 146.679 -1.07006 149.21 1.925L188.597 48.5284C190.36 50.615 193.472 50.8999 195.585 49.1683L242.78 10.4931C245.813 8.00756 250.396 9.82187 250.907 13.71L258.845 74.2091C259.2 76.9178 261.664 78.8398 264.378 78.5255L324.99 71.5055C328.885 71.0543 331.76 75.0586 330.088 78.6053L304.057 133.792C302.892 136.263 303.925 139.212 306.378 140.414L361.164 167.279C364.685 169.005 364.939 173.928 361.614 176.007L309.879 208.36C307.563 209.809 306.838 212.848 308.251 215.186L339.816 267.405C341.845 270.761 339.397 275.04 335.476 274.991L274.463 274.239C271.731 274.205 269.478 276.37 269.403 279.101L267.725 340.095C267.618 344.015 263.245 346.291 259.972 344.131L209.052 310.511C206.772 309.006 203.706 309.609 202.167 311.866L167.779 362.271Z" fill="url(#paint0_linear_2836_1297)"/>
<defs>
<linearGradient id="paint0_linear_2836_1297" x1="538.321" y1="127.945" x2="197.271" y2="-7.72011" gradientUnits="userSpaceOnUse">
<stop stop-color="#DECAFF" stop-opacity="0"/>
<stop offset="1" stop-color="#691EE2"/>
</linearGradient>
</defs>
</svg>
