<svg width="152" height="258" viewBox="0 0 152 258" fill="none" xmlns="http://www.w3.org/2000/svg">
<path d="M50.7627 252.893C50.6143 255.651 48.2571 257.776 45.5075 257.52C26.1436 255.722 7.41582 249.555 -9.25501 239.457C-27.3531 228.495 -42.4683 213.238 -53.2618 195.039C-64.0553 176.84 -70.1938 156.259 -71.1337 135.121C-72.0736 113.983 -67.7858 92.9386 -58.6501 73.8531C-49.5145 54.7677 -35.813 38.2299 -18.7592 25.7045C-1.70547 13.1792 18.1741 5.05298 39.1185 2.04569C60.063 -0.961591 81.4259 1.24288 101.315 8.46384C119.635 15.1153 136.184 25.8342 149.729 39.7886C151.653 41.7701 151.476 44.9389 149.421 46.7838L113.498 79.0391C111.444 80.884 108.294 80.6995 106.308 78.7809C99.2109 71.9249 90.7367 66.6244 81.4262 63.244C70.5458 59.2938 58.8592 58.0878 47.4015 59.733C35.9438 61.3781 25.0686 65.8236 15.7393 72.6756C6.41 79.5276 -1.08547 88.5747 -6.08315 99.0155C-11.0808 109.456 -13.4265 120.968 -12.9123 132.532C-12.3981 144.096 -9.04004 155.354 -3.13544 165.31C2.76915 175.266 11.038 183.613 20.9386 189.61C29.4108 194.741 38.8541 198.017 48.6453 199.245C51.3853 199.589 53.5043 201.926 53.356 204.684L50.7627 252.893Z" fill="url(#paint0_linear_2811_44)"/>
<defs>
<linearGradient id="paint0_linear_2811_44" x1="40.6819" y1="-91.3158" x2="-18.0325" y2="269.681" gradientUnits="userSpaceOnUse">
<stop stop-color="#DECAFF"/>
<stop offset="1" stop-color="#691EE2"/>
</linearGradient>
</defs>
</svg>
