<svg width="35" height="35" viewBox="0 0 35 35" fill="none" xmlns="http://www.w3.org/2000/svg">
<circle cx="17.5" cy="17.5" r="16.5" stroke="white" stroke-width="2"/>
<path d="M26.6215 18.2214C26.8129 18.0299 26.9204 17.7703 26.9204 17.4996C26.9204 17.2289 26.8129 16.9693 26.6215 16.7779L20.8467 11.0031C20.7525 10.9056 20.6399 10.8278 20.5153 10.7743C20.3908 10.7208 20.2568 10.6926 20.1213 10.6914C19.9857 10.6903 19.8513 10.7161 19.7258 10.7674C19.6004 10.8188 19.4864 10.8946 19.3906 10.9904C19.2947 11.0863 19.2189 11.2002 19.1676 11.3257C19.1163 11.4511 19.0904 11.5856 19.0916 11.7211C19.0928 11.8567 19.1209 11.9906 19.1744 12.1152C19.2279 12.2397 19.3057 12.3523 19.4032 12.4465L23.4355 16.4788H9.9166C9.64586 16.4788 9.38621 16.5864 9.19477 16.7778C9.00332 16.9692 8.89577 17.2289 8.89577 17.4996C8.89577 17.7704 9.00332 18.03 9.19477 18.2215C9.38621 18.4129 9.64586 18.5205 9.9166 18.5205H23.4355L19.4032 22.5528C19.2173 22.7453 19.1144 23.0032 19.1167 23.2708C19.119 23.5385 19.2264 23.7945 19.4156 23.9838C19.6049 24.1731 19.861 24.2804 20.1286 24.2827C20.3963 24.2851 20.6541 24.1822 20.8467 23.9962L26.6215 18.2214Z" fill="white"/>
</svg>
