<svg width="25" height="26" viewBox="0 0 25 26" fill="none" xmlns="http://www.w3.org/2000/svg">
<path d="M11.7786 21.6215C11.9701 21.8129 12.2297 21.9204 12.5004 21.9204C12.7711 21.9204 13.0307 21.8129 13.2221 21.6215L18.9969 15.8467C19.0944 15.7525 19.1722 15.6399 19.2257 15.5153C19.2792 15.3908 19.3074 15.2568 19.3086 15.1213C19.3097 14.9857 19.2839 14.8513 19.2326 14.7258C19.1812 14.6004 19.1054 14.4864 19.0096 14.3906C18.9137 14.2947 18.7998 14.2189 18.6743 14.1676C18.5489 14.1163 18.4144 14.0904 18.2789 14.0916C18.1433 14.0928 18.0094 14.1209 17.8848 14.1744C17.7603 14.2279 17.6477 14.3057 17.5535 14.4032L13.5212 18.4355L13.5212 4.9166C13.5212 4.64586 13.4136 4.38621 13.2222 4.19477C13.0308 4.00332 12.7711 3.89577 12.5004 3.89577C12.2296 3.89577 11.97 4.00332 11.7785 4.19477C11.5871 4.38621 11.4795 4.64586 11.4795 4.9166L11.4795 18.4355L7.44724 14.4032C7.25471 14.2173 6.99685 14.1144 6.72919 14.1167C6.46153 14.119 6.20549 14.2264 6.01622 14.4156C5.82695 14.6049 5.71959 14.861 5.71726 15.1286C5.71494 15.3963 5.81783 15.6541 6.00378 15.8467L11.7786 21.6215Z" fill="white"/>
</svg>
