<svg width="49" height="35" viewBox="0 0 49 35" fill="none" xmlns="http://www.w3.org/2000/svg">
<path d="M13.1633 35C11.372 35 9.86945 34.3458 8.65567 33.0373C7.44356 31.7288 6.85766 30.151 6.89795 28.3038C5.52804 27.6173 4.4536 26.619 3.67464 25.3088C2.89903 23.9986 2.51122 22.5559 2.51122 20.9806C2.51122 18.9907 3.12734 17.2608 4.35959 15.7909C5.59184 14.3227 7.16488 13.3796 9.07873 12.9615L3.76781 7.5883L2.23925 9.13808C1.97064 9.40997 1.65671 9.56206 1.29744 9.59435C0.939854 9.62663 0.626756 9.50768 0.358146 9.23749C0.0895365 8.9656 -0.0279802 8.64783 0.00559604 8.28417C0.0391722 7.92222 0.189426 7.6053 0.456357 7.33341L5.29888 2.43172C5.56749 2.15983 5.88059 2.00774 6.23818 1.97546C6.59577 1.94317 6.90886 2.06212 7.17747 2.33231C7.44608 2.6042 7.5636 2.92198 7.53002 3.28563C7.49813 3.64759 7.34871 3.96451 7.08178 4.2364L5.55071 5.78363L10.7231 11.0192L13.1255 3.85405C13.4999 2.7393 14.1462 1.81827 15.0645 1.09096C15.9828 0.363654 17.0178 0 18.1695 0H33.1453C34.297 0 35.332 0.363654 36.2503 1.09096C37.1686 1.81827 37.8149 2.7393 38.1893 3.85405L41.2036 12.8035C43.4028 12.9123 45.2512 13.7458 46.7487 15.3041C48.2496 16.8623 49 18.7545 49 20.9806C49 22.5559 48.6105 23.9986 47.8315 25.3088C47.0543 26.619 45.9807 27.6173 44.6107 28.3038C44.651 30.151 44.0643 31.7288 42.8505 33.0373C41.6384 34.3458 40.1367 35 38.3454 35C36.717 35 35.3118 34.4426 34.1299 33.3279C32.9464 32.2131 32.2916 30.8426 32.1657 29.2164H19.343C19.2171 30.8426 18.5623 32.2131 17.3788 33.3279C16.1969 34.4426 14.7917 35 13.1633 35ZM12.8158 12.7474H24.3995V2.55153H18.1695C17.5601 2.55153 17.0136 2.7427 16.5301 3.12505C16.045 3.50909 15.6974 4.01039 15.4876 4.62894L12.8158 12.7474ZM26.9178 12.7474H38.5016L35.8272 4.62639C35.6174 4.00784 35.2707 3.50654 34.7872 3.1225C34.302 2.73845 33.7547 2.54643 33.1453 2.54643H26.9178V12.7474ZM19.1491 26.6648H32.3596C32.776 25.3649 33.5356 24.3053 34.6386 23.4863C35.7416 22.6655 36.9772 22.2551 38.3454 22.2551C39.5407 22.2551 40.6353 22.561 41.6292 23.1727C42.623 23.7845 43.4012 24.6155 43.9636 25.6656C44.761 25.166 45.3796 24.4991 45.8195 23.6647C46.261 22.8303 46.4818 21.9356 46.4818 20.9806C46.4818 19.4156 45.932 18.0765 44.8324 16.9634C43.7327 15.8504 42.4098 15.2947 40.8636 15.2964H10.6451C9.09887 15.2964 7.77597 15.8529 6.67635 16.966C5.57673 18.079 5.02692 19.4173 5.02692 20.9806C5.02692 21.9356 5.24768 22.8303 5.68921 23.6647C6.12906 24.4991 6.7477 25.166 7.54513 25.6656C8.07564 24.5815 8.84621 23.742 9.85685 23.1473C10.8658 22.5525 11.968 22.2551 13.1633 22.2551C14.5315 22.2551 15.7671 22.6655 16.8701 23.4863C17.9731 24.3053 18.7327 25.3657 19.1491 26.6674M13.1633 32.451C14.1991 32.451 15.088 32.0763 15.8301 31.3269C16.5704 30.5758 16.9406 29.676 16.9406 28.6276C16.9406 27.5791 16.5704 26.6793 15.8301 25.9282C15.088 25.1788 14.1991 24.8041 13.1633 24.8041C12.1274 24.8041 11.2385 25.1788 10.4965 25.9282C9.75613 26.6793 9.38595 27.5791 9.38595 28.6276C9.38595 29.676 9.75613 30.5758 10.4965 31.3269C11.2385 32.0763 12.1274 32.451 13.1633 32.451ZM38.3454 32.451C39.3813 32.451 40.2702 32.0763 41.0122 31.3269C41.7526 30.5758 42.1227 29.676 42.1227 28.6276C42.1227 27.5791 41.7526 26.6793 41.0122 25.9282C40.2702 25.1788 39.3813 24.8041 38.3454 24.8041C37.3096 24.8041 36.4207 25.1788 35.6786 25.9282C34.9383 26.6793 34.5681 27.5791 34.5681 28.6276C34.5681 29.676 34.9383 30.5758 35.6786 31.3269C36.4207 32.0763 37.3096 32.451 38.3454 32.451Z" fill="white"/>
</svg>
