<svg width="51" height="51" viewBox="0 0 51 51" fill="none" xmlns="http://www.w3.org/2000/svg">
<path d="M1.09752 27.7514C2.91603 22.5026 6.72977 16.939 12.1175 11.6758C17.5053 6.41263 23.1566 2.73005 28.4464 1.03479C33.5966 -0.615719 37.9556 -0.120746 40.4062 2.38791L48.5581 10.7327C51.0088 13.2414 51.4016 17.6107 49.6311 22.7209C47.8126 27.9696 43.9989 33.5333 38.6111 38.7965C33.2234 44.0596 27.5721 47.7422 22.2822 49.4375C17.1321 51.088 12.7731 50.593 10.3224 48.0844L2.17056 39.7396C-0.280101 37.2309 -0.672993 32.8615 1.09752 27.7514ZM29.3389 3.81197C24.544 5.3464 19.1522 8.88084 14.1555 13.762C9.15879 18.6432 5.49921 23.9509 3.85306 28.7085C2.45937 32.7337 2.60538 36.0124 4.25614 37.7022C5.9069 39.392 9.18128 39.6147 13.2379 38.3155C18.0327 36.7811 23.4246 33.2466 28.4213 28.3654C33.418 23.4843 37.0776 18.1766 38.7237 13.4189C40.1174 9.39379 39.9714 6.1151 38.3206 4.42528C36.6699 2.73545 33.3955 2.5128 29.3389 3.81197ZM31.4902 29.4208L37.6041 35.6794C40.8664 32.3294 43.4897 28.8154 45.2643 25.4409L39.2522 19.2866C37.3643 22.6632 34.7437 26.093 31.4902 29.4208ZM29.4046 31.4582C26.0016 34.633 22.5115 37.1726 19.0899 38.9794L25.1019 45.1337C28.517 43.4386 32.0914 40.8982 35.5168 37.715L29.4046 31.4582ZM46.4725 12.7701L42.5664 8.77153C42.496 10.6844 42.1287 12.5745 41.4776 14.3743C41.2299 15.0851 40.9467 15.8012 40.6279 16.5226L46.572 22.6073C46.6801 22.3251 46.7915 22.0532 46.8807 21.769C48.2693 17.7386 48.1233 14.4599 46.4725 12.7701ZM21.3898 46.6603C21.6692 46.5708 21.9504 46.4728 22.2351 46.3713L16.2911 40.2866C15.5636 40.5873 14.8411 40.8536 14.1235 41.0857C12.3109 41.6958 10.4144 42.0206 8.50191 42.0484L12.408 46.047C14.0588 47.7368 17.3332 47.9595 21.3898 46.6603Z" fill="white"/>
</svg>
