<svg width="234" height="255" viewBox="0 0 234 255" fill="none" xmlns="http://www.w3.org/2000/svg">
<path d="M106.376 250.755C105.866 253.469 103.249 255.266 100.557 254.651C81.5985 250.319 63.8456 241.74 48.6492 229.535C32.1518 216.286 19.1766 199.172 10.8729 179.71C2.56927 160.249 -0.806535 139.039 1.04456 117.961C2.89564 96.883 9.91646 76.5866 21.4851 58.87C33.0538 41.1533 48.8132 26.5632 67.3675 16.3919C85.9217 6.22066 106.698 0.782235 127.856 0.558385C149.014 0.334535 169.901 5.33216 188.666 15.1086C205.952 24.114 220.945 36.9182 232.536 52.5343C234.181 54.7517 233.589 57.8697 231.309 59.4281L191.453 86.6736C189.173 88.2319 186.075 87.6344 184.359 85.4711C178.226 77.7404 170.523 71.3703 161.739 66.7937C151.473 61.4455 140.047 58.7116 128.473 58.834C116.898 58.9565 105.532 61.9316 95.3821 67.4958C85.232 73.06 76.6107 81.0416 70.2821 90.7336C63.9534 100.426 60.1126 111.529 59.1 123.06C58.0874 134.59 59.9341 146.193 64.4766 156.84C69.0192 167.486 76.1173 176.848 85.1423 184.097C92.8651 190.299 101.795 194.79 111.339 197.296C114.01 197.997 115.803 200.593 115.293 203.307L106.376 250.755Z" fill="url(#paint0_linear_2836_1296)"/>
<defs>
<linearGradient id="paint0_linear_2836_1296" x1="141.696" y1="-91.7848" x2="35.9693" y2="258.34" gradientUnits="userSpaceOnUse">
<stop stop-color="#DECAFF"/>
<stop offset="1" stop-color="#691EE2"/>
</linearGradient>
</defs>
</svg>
