<svg width="70" height="51" viewBox="0 0 70 51" fill="none" xmlns="http://www.w3.org/2000/svg">
<path d="M57.3357 12.1842C56.8804 18.5017 52.1918 23.3684 47.079 23.3684C41.9662 23.3684 37.2699 18.5033 36.8223 12.1842C36.3561 5.61193 40.9203 1 47.079 1C53.2377 1 57.802 5.73154 57.3357 12.1842Z" stroke="white" stroke-width="2" stroke-linecap="round" stroke-linejoin="round"/>
<path d="M47.0787 32.3154C37.1577 32.3154 27.6172 37.2287 25.2271 46.7973C24.9105 48.0632 25.7067 49.3154 27.0113 49.3154H67.1477C68.4523 49.3154 69.2439 48.0632 68.9319 46.7973C66.5418 37.0754 57.0013 32.3154 47.0787 32.3154Z" stroke="white" stroke-width="2" stroke-miterlimit="10"/>
<path d="M26.9224 14.8594C26.568 19.6194 22.8754 23.3682 18.8949 23.3682C14.9145 23.3682 11.2158 19.6208 10.8674 14.8594C10.5054 9.90739 14.0996 6.36816 18.8949 6.36816C23.6902 6.36816 27.2844 9.99825 26.9224 14.8594Z" stroke="white" stroke-width="2" stroke-linecap="round" stroke-linejoin="round"/>
<path d="M27.8421 33.1389C25.0578 31.898 21.9912 31.4209 18.741 31.4209C10.7197 31.4209 2.99142 35.2994 1.0555 42.8539C0.800976 43.8532 1.44577 44.842 2.50088 44.842H19.8208" stroke="white" stroke-width="2" stroke-miterlimit="10" stroke-linecap="round"/>
</svg>
