<svg width="79" height="79" viewBox="0 0 79 79" fill="none" xmlns="http://www.w3.org/2000/svg">
<path fill-rule="evenodd" clip-rule="evenodd" d="M31.5746 2C31.0223 2 30.5746 2.44772 30.5746 3V12.5279C30.5746 12.9936 30.4662 13.4529 30.2579 13.8695L25.1802 24.0249C25.1108 24.1638 25.0746 24.3169 25.0746 24.4721V33.5H23.0746V24.4721C23.0746 24.0064 23.1831 23.5471 23.3913 23.1305L28.469 12.9751C28.5385 12.8362 28.5746 12.6831 28.5746 12.5279V3C28.5746 1.34315 29.9178 0 31.5746 0H68.5746C70.2315 0 71.5746 1.34315 71.5746 3V12.5279C71.5746 12.6831 71.6108 12.8362 71.6802 12.9751L76.771 23.1566C76.9667 23.548 77.0744 23.9775 77.0865 24.415L78.5171 75.9167C78.564 77.6055 77.2078 79 75.5183 79H46.0746H3.00097C1.11437 79 -0.303969 77.2793 0.0561251 75.4274L2.77835 61.4274C3.05245 60.0177 4.28712 59 5.72319 59H7.203C7.42353 58.5001 7.54253 58.0176 7.63122 57.5191C7.66131 57.35 7.69209 57.1463 7.72479 56.9299C7.77971 56.5665 7.84003 56.1673 7.91152 55.8364C8.04218 55.2318 8.24992 54.5937 8.66824 53.9544C9.08581 53.3163 9.67992 52.7275 10.5199 52.1675L11.6293 53.8316C10.9693 54.2716 10.5849 54.678 10.3418 55.0495C10.0994 55.4199 9.9643 55.8058 9.8664 56.2589C9.80166 56.5585 9.76435 56.8134 9.72193 57.1032L9.72192 57.1032L9.72191 57.1033L9.72189 57.1034L9.72188 57.1036L9.72186 57.1037C9.68928 57.3262 9.65368 57.5695 9.6003 57.8695C9.53715 58.2243 9.45572 58.6024 9.33332 59H39.7521C39.5007 58.4821 39.1401 57.7966 38.6907 57.0922C38.2293 56.369 37.6898 55.6506 37.0976 55.0755C36.4995 54.4947 35.9024 54.1135 35.3302 53.9692C34.421 53.74 33.7214 53.9805 32.7738 54.4185C32.6812 54.4613 32.5854 54.5066 32.4866 54.5533L32.4861 54.5535L32.4847 54.5542C31.6077 54.9687 30.4844 55.4996 29.0746 55.4996C26.7945 55.4996 25.296 54.9838 23.5403 54.3796C23.1342 54.2398 22.7143 54.0953 22.2678 53.9513C21.5235 53.7114 20.8445 53.298 20.2583 52.8906C19.9618 52.6847 19.6751 52.4701 19.4089 52.2699L19.3403 52.2183L19.3402 52.2182C19.0957 52.0343 18.8712 51.8653 18.6535 51.7112C18.1542 51.3579 17.8161 51.177 17.5788 51.1219C17.4797 51.0989 17.4345 51.1073 17.4182 51.1115C17.4059 51.1148 17.3608 51.1276 17.2817 51.2067L15.8675 49.7925C16.1635 49.4965 16.5116 49.2819 16.9098 49.1772C17.3041 49.0736 17.6866 49.0936 18.0316 49.1738C18.6825 49.3251 19.2975 49.7169 19.8088 50.0787C20.0518 50.2507 20.3 50.4374 20.5396 50.6177L20.6111 50.6716C20.8778 50.8722 21.1373 51.0661 21.3994 51.2481C21.9303 51.617 22.4178 51.8983 22.8815 52.0478L22.9944 52.0844L23.0746 52.1105V38H25.0746V52.7855C26.3876 53.2206 27.4621 53.4996 29.0746 53.4996C30.0139 53.4996 30.7367 53.162 31.6485 52.7362C31.7418 52.6927 31.837 52.6482 31.9347 52.603C32.9544 52.1318 34.2022 51.6223 35.8191 52.0299C36.4689 52.1937 37.0626 52.5029 37.5961 52.886L38.3646 52.5022L38.3623 52.5036L37.5962 52.8861L37.6157 52.9001C37.7919 52.8164 38.0388 52.6898 38.3623 52.5036L46.1124 48.6336C45.5786 49.3861 44.9626 50.1602 44.2056 50.7758C42.0234 52.5505 40.4812 53.5818 39.4657 54.1756C39.3567 54.2394 39.2536 54.2981 39.1563 54.3523C39.6178 54.892 40.0264 55.4673 40.3768 56.0165C40.8896 56.8203 41.2936 57.5931 41.5691 58.1632C41.7072 58.4492 41.8141 58.6864 41.8871 58.8538C41.9237 58.9376 41.9518 59.004 41.9712 59.0506L41.9938 59.1052L42.0001 59.1207L42.002 59.1254L42.0026 59.127L42.0029 59.1276C42.0029 59.1277 42.0029 59.1277 41.9895 59.1331L41.9094 59.1654C42.8187 59.481 43.5399 60.2236 43.8112 61.1775C43.9933 61.0154 44.2006 60.8485 44.4355 60.6827C45.6767 59.8068 47.6307 59 50.5746 59C51.8392 59 53.0226 59.4554 54.0465 59.9397C54.4484 60.1298 54.8495 60.3365 55.2281 60.5315L55.2287 60.5318L55.2289 60.5319L55.3593 60.5991L55.5398 60.6917C56.018 60.9364 56.4574 61.1531 56.8774 61.3227C57.7339 61.6686 58.3501 61.7504 58.858 61.582C59.3513 61.4185 59.9898 60.9335 60.6802 59.5527C61.3866 58.1399 61.5564 57.1953 61.4914 56.5298C61.4295 55.8966 61.1422 55.3852 60.6226 54.8499C60.1738 54.3877 59.6179 53.9695 58.9475 53.4652L58.9466 53.4645C58.789 53.346 58.6251 53.2226 58.4547 53.0929C57.5948 52.4377 56.6365 51.6615 55.7985 50.6301C55.2668 49.9758 54.8094 49.2317 54.3924 48.5258C54.3032 48.3747 54.2161 48.2259 54.1303 48.0794C53.8033 47.5209 53.4961 46.9961 53.1656 46.5073C52.3253 45.2646 51.5402 44.5748 50.5002 44.4972C49.4016 44.4152 48.5957 45.0779 47.6062 46.4471C47.3672 46.7778 47.1314 47.1294 46.8832 47.5012L46.8392 47.5671L46.8391 47.5672C46.6074 47.9143 46.3646 48.2781 46.1124 48.6336L38.3646 52.5022C38.3945 52.485 38.425 52.4673 38.4562 52.4491C39.365 51.9177 40.8227 50.9491 42.9437 49.2242C43.4898 48.78 43.9817 48.1805 44.4812 47.4763C44.7164 47.1449 44.9444 46.8033 45.1798 46.4506L45.2198 46.3907C45.4662 46.0217 45.7214 45.6406 45.9852 45.2756C47.0066 43.8622 48.3976 42.3347 50.649 42.5027C52.6507 42.6521 53.9039 44.0285 54.8224 45.3871C55.193 45.9352 55.5426 46.5326 55.873 47.0974L55.8744 47.0998C55.9275 47.1904 55.98 47.2802 56.0321 47.3688C56.0597 47.4158 56.0871 47.4624 56.1144 47.5086C56.5275 48.2079 56.9207 48.8397 57.3507 49.3689C58.0333 50.209 58.8353 50.8686 59.6667 51.5019C59.8077 51.6093 59.9521 51.7177 60.0981 51.8273C60.7763 52.3363 61.4893 52.8715 62.0575 53.4568C62.7827 54.2038 63.3627 55.1157 63.4819 56.3352C63.5979 57.5225 63.2626 58.86 62.4691 60.4472C61.6594 62.0665 60.6907 63.0815 59.4874 63.4804C58.2988 63.8745 57.1292 63.5813 56.1285 63.1772C55.6198 62.9718 55.1128 62.7198 54.6289 62.4723C54.5174 62.4152 54.4074 62.3586 54.2986 62.3025L54.2965 62.3014L54.2946 62.3005C53.9208 62.1079 53.5597 61.9219 53.1914 61.7477C52.2332 61.2945 51.3811 61 50.5746 61C48.0186 61 46.4726 61.693 45.5888 62.3168C45.1412 62.6326 44.8483 62.9414 44.6736 63.1582C44.5862 63.2668 44.5283 63.3524 44.4955 63.4043C44.4792 63.4303 44.4691 63.4477 44.4649 63.4552L44.4633 63.4581L44.4649 63.455L44.4667 63.4514L44.4678 63.4492L44.4684 63.4481C44.4686 63.4477 44.4688 63.4473 44.2415 63.3333L46.8989 77H75.5183C76.0815 77 76.5335 76.5352 76.5179 75.9722L75.0873 24.4705C75.0833 24.3247 75.0474 24.1815 74.9821 24.0511L69.8913 13.8695C69.6831 13.4529 69.5746 12.9936 69.5746 12.5279V3C69.5746 2.44772 69.1269 2 68.5746 2H31.5746ZM44.8615 77L41.9077 61.8091C41.8163 61.3392 41.4048 61 40.9261 61H5.72319C5.2445 61 4.83295 61.3392 4.74158 61.8091L2.01936 75.8091C1.89932 76.4264 2.37211 77 3.00097 77H44.8615ZM65.1657 44.8899L66.222 40.5158C66.411 39.7329 65.9296 38.945 65.1468 38.7559C64.3639 38.5668 63.576 39.0482 63.3869 39.8311L62.3306 44.2053C62.1416 44.9882 62.623 45.7761 63.4059 45.9652C64.1887 46.1542 64.9767 45.6728 65.1657 44.8899ZM65.6162 36.8118C63.7596 36.3634 61.8911 37.5051 61.4428 39.3617L60.3865 43.7359C59.9382 45.5924 61.0798 47.461 62.9364 47.9093C64.793 48.3576 66.6615 47.216 67.1098 45.3594L68.1661 40.9852C68.6144 39.1286 67.4728 37.2601 65.6162 36.8118ZM34.5746 6C34.0223 6 33.5746 6.44772 33.5746 7C33.5746 7.55228 34.0223 8 34.5746 8H53.5746C54.1269 8 54.5746 7.55228 54.5746 7C54.5746 6.44772 54.1269 6 53.5746 6H34.5746ZM56.5746 7C56.5746 6.44772 57.0223 6 57.5746 6H66.0746C66.6269 6 67.0746 6.44772 67.0746 7C67.0746 7.55228 66.6269 8 66.0746 8H57.5746C57.0223 8 56.5746 7.55228 56.5746 7ZM60.0746 70C59.5223 70 59.0746 70.4477 59.0746 71C59.0746 71.5523 59.5223 72 60.0746 72H69.0746C69.6269 72 70.0746 71.5523 70.0746 71C70.0746 70.4477 69.6269 70 69.0746 70H60.0746ZM45.8663 37.045L45.651 32.5502C45.6125 31.7457 44.9291 31.1248 44.1246 31.1633C43.3202 31.2019 42.6992 31.8852 42.7378 32.6897L42.953 37.1845C42.9916 37.989 43.6749 38.6099 44.4794 38.5713C45.2839 38.5328 45.9048 37.8494 45.8663 37.045ZM44.029 29.1656C42.1212 29.257 40.6487 30.8776 40.7401 32.7854L40.9553 37.2802C41.0467 39.1879 42.6673 40.6604 44.5751 40.5691C46.4829 40.4777 47.9554 38.8571 47.864 36.9493L47.6487 32.4545C47.5574 30.5467 45.9367 29.0743 44.029 29.1656ZM56.651 32.5502L56.8663 37.045C56.9048 37.8494 56.2839 38.5328 55.4794 38.5713C54.6749 38.6099 53.9916 37.989 53.953 37.1845L53.7378 32.6897C53.6992 31.8852 54.3202 31.2019 55.1246 31.1633C55.9291 31.1248 56.6125 31.7457 56.651 32.5502ZM51.7401 32.7854C51.6487 30.8776 53.1212 29.257 55.029 29.1656C56.9367 29.0743 58.5574 30.5467 58.6487 32.4545L58.864 36.9493C58.9554 38.8571 57.4829 40.4777 55.5751 40.5691C53.6673 40.6604 52.0467 39.1879 51.9553 37.2802L51.7401 32.7854ZM36.555 39.9816L37.6732 44.3403C37.8734 45.1205 37.4032 45.9151 36.6231 46.1153C35.8429 46.3154 35.0483 45.8452 34.8481 45.0651L33.7299 40.7063C33.5298 39.9262 34 39.1315 34.7801 38.9314C35.5602 38.7313 36.3549 39.2014 36.555 39.9816ZM31.7926 41.2033C31.318 39.3533 32.433 37.4688 34.2831 36.9941C36.1331 36.5195 38.0177 37.6345 38.4923 39.4846L39.6105 43.8433C40.0851 45.6934 38.9701 47.5779 37.1201 48.0525C35.27 48.5272 33.3855 47.4121 32.9109 45.5621L31.7926 41.2033Z" fill="white"/>
</svg>
