<svg width="113" height="113" viewBox="0 0 113 113" fill="none" xmlns="http://www.w3.org/2000/svg">
<path d="M42.375 1.96356C43.0626 2.80214 43.4839 3.82716 43.5845 4.90694C43.6852 5.98672 43.4608 7.07194 42.94 8.02319C38.8546 15.519 36.7221 23.9226 36.7391 32.4594C36.7391 60.8577 59.89 83.8532 88.4225 83.8532C92.1515 83.8485 95.7604 83.4719 99.2493 82.7233C100.317 82.4949 101.427 82.5847 102.444 82.9814C103.461 83.378 104.339 84.0642 104.97 84.955C105.637 85.882 105.978 87.0043 105.938 88.1458C105.898 89.2873 105.481 90.3833 104.751 91.2618C99.2114 98.0657 92.2235 103.548 84.2965 107.308C76.3695 111.069 67.7033 113.014 58.9295 113C26.3714 113 0 86.7701 0 54.4521C0 30.1288 14.9301 9.26619 36.1883 0.423939C37.2468 -0.0259416 38.423 -0.119034 39.5392 0.158729C40.6553 0.436493 41.6508 1.07002 42.375 1.96356ZM34.3096 9.25913C26.136 13.6443 19.303 20.1618 14.5366 28.1192C9.77011 36.0765 7.2483 45.1764 7.23906 54.4521C7.23906 82.8433 30.397 105.839 58.9295 105.839C65.7618 105.849 72.5285 104.505 78.8382 101.884C85.1478 99.2632 90.8754 95.4177 95.6898 90.5697C93.3074 90.8663 90.885 91.0146 88.4225 91.0146C55.8644 91.0146 29.5001 64.7845 29.5001 32.4665C29.5001 24.2246 31.2092 16.3781 34.3096 9.25913Z" fill="white"/>
<path d="M77.1816 22.5473L77.1811 22.5489L74.4482 30.7545C74.4482 30.7546 74.4482 30.7547 74.4481 30.7548C73.7999 32.7078 72.7047 34.4825 71.2496 35.9376C69.7945 37.3927 68.0197 38.488 66.0666 39.1362L57.8609 41.8691L57.8593 41.8696C57.753 41.9048 57.6605 41.9726 57.595 42.0633C57.5294 42.1541 57.4941 42.2632 57.4941 42.3752C57.4941 42.4871 57.5294 42.5962 57.595 42.687C57.6605 42.7778 57.753 42.8455 57.8593 42.8807L57.8609 42.8813L66.0666 45.6141C68.0197 46.2623 69.7945 47.3576 71.2496 48.8128C72.7047 50.2678 73.7999 52.0425 74.4481 53.9955C74.4482 53.9956 74.4482 53.9957 74.4482 53.9958L77.1811 62.2014L77.1816 62.2031C77.2168 62.3094 77.2846 62.4018 77.3754 62.4674C77.4661 62.5329 77.5752 62.5682 77.6872 62.5682C77.7992 62.5682 77.9083 62.5329 77.999 62.4674C78.0898 62.4018 78.1576 62.3094 78.1928 62.2031L78.1933 62.2014L80.9262 53.9958C80.9262 53.9957 80.9262 53.9956 80.9263 53.9955C81.5745 52.0425 82.6697 50.2678 84.1248 48.8128C85.5797 47.3579 87.3541 46.2627 89.3068 45.6145L77.1816 22.5473ZM77.1816 22.5473C77.2168 22.441 77.2846 22.3485 77.3754 22.2829C77.4661 22.2174 77.5752 22.1821 77.6872 22.1821C77.7992 22.1821 77.9083 22.2174 77.999 22.2829C78.0898 22.3485 78.1576 22.441 78.1928 22.5473L78.1933 22.5489L80.9265 30.7555L80.9268 30.7563C82.2482 34.7129 85.3495 37.8142 89.306 39.1356L89.3068 39.1359L97.5135 41.8691L97.5151 41.8696C97.6214 41.9048 97.7139 41.9726 97.7794 42.0633C97.845 42.1541 97.8803 42.2632 97.8803 42.3752C97.8803 42.4871 97.845 42.5962 97.7794 42.687C97.7139 42.7778 97.6214 42.8455 97.5151 42.8807L97.5135 42.8813L89.3078 45.6141L77.1816 22.5473ZM106.517 15.9665L106.518 15.9662L111.974 14.1473C111.979 14.1456 111.982 14.1428 111.985 14.1391C111.988 14.1351 111.989 14.1302 111.989 14.1252C111.989 14.1202 111.988 14.1153 111.985 14.1112C111.982 14.1076 111.979 14.1047 111.974 14.103L106.519 12.2844C103.776 11.3729 101.628 9.22446 100.716 6.48196L106.517 15.9665ZM106.517 15.9665C105.167 16.4182 103.94 17.1773 102.933 18.1839C101.927 19.1906 101.168 20.4173 100.716 21.7673L100.716 21.7684M106.517 15.9665L100.716 21.7684M100.716 21.7684L98.8969 27.2249C98.8951 27.229 98.8923 27.2325 98.8887 27.2351L99.4685 28.0499L98.8886 27.2351C98.8846 27.238 98.8797 27.2396 98.8747 27.2396C98.8697 27.2396 98.8648 27.238 98.8608 27.2351L98.2809 28.0499L98.8607 27.2351C98.8597 27.2344 98.8587 27.2336 98.8578 27.2327C98.8556 27.2305 98.8538 27.2278 98.8525 27.2249L97.0337 21.7684L97.0333 21.7673M100.716 21.7684L97.0333 21.7673M97.0333 21.7673C96.5816 20.4173 95.8226 19.1906 94.8159 18.1839C93.8093 17.1773 92.5826 16.4182 91.2326 15.9665L91.2315 15.9662M97.0333 21.7673L91.2315 15.9662M91.2315 15.9662L85.775 14.1473M91.2315 15.9662L85.775 14.1473M85.775 14.1473C85.7709 14.1456 85.7673 14.1428 85.7647 14.1391C85.7618 14.135 85.7603 14.1302 85.7603 14.1252C85.7603 14.1202 85.7618 14.1153 85.7647 14.1112C85.7673 14.1076 85.7709 14.1047 85.775 14.103L91.2307 12.2844C93.9733 11.3729 96.1219 9.22446 97.0337 6.48196L85.775 14.1473ZM98.8969 1.0254L100.715 6.48113H97.034L98.8526 1.0254C98.8543 1.02132 98.8571 1.01779 98.8607 1.0152C98.8648 1.0123 98.8697 1.01074 98.8747 1.01074C98.8797 1.01074 98.8846 1.0123 98.8887 1.0152C98.8923 1.01779 98.8951 1.02132 98.8969 1.0254Z" stroke="white" stroke-width="2"/>
</svg>
