<svg width="9" height="7" viewBox="0 0 9 7" fill="none" xmlns="http://www.w3.org/2000/svg">
<path fill-rule="evenodd" clip-rule="evenodd" d="M2.86364 0C2.54864 0 2.30173 0.191545 2.149 0.421273C1.99436 0.652909 1.90909 0.955182 1.90909 1.27273C1.90909 1.59091 1.99436 1.89255 2.149 2.12418C2.30173 2.35327 2.54864 2.54545 2.86364 2.54545C3.17864 2.54545 3.42555 2.35391 3.57827 2.12418C3.73291 1.89255 3.81818 1.59027 3.81818 1.27273C3.81818 0.954545 3.73291 0.652909 3.57827 0.421273C3.42555 0.192182 3.17864 0 2.86364 0ZM6.04545 0C5.73045 0 5.48355 0.191545 5.33082 0.421273C5.17618 0.652909 5.09091 0.955182 5.09091 1.27273C5.09091 1.59091 5.17618 1.89255 5.33082 2.12418C5.48355 2.35327 5.73045 2.54545 6.04545 2.54545C6.36046 2.54545 6.60736 2.35391 6.76009 2.12418C6.91473 1.89255 7 1.59027 7 1.27273C7 0.954545 6.91473 0.652909 6.76009 0.421273C6.60736 0.192182 6.36046 0 6.04545 0ZM0.954545 2.86364C0.639546 2.86364 0.392636 3.05518 0.239909 3.28491C0.0852727 3.51655 0 3.81882 0 4.13636C0 4.45455 0.0852727 4.75618 0.239909 4.98782C0.392636 5.21691 0.639546 5.40909 0.954545 5.40909C1.26955 5.40909 1.51645 5.21755 1.66918 4.98782C1.82382 4.75618 1.90909 4.45391 1.90909 4.13636C1.90909 3.81818 1.82382 3.51655 1.66918 3.28491C1.51645 3.05582 1.26955 2.86364 0.954545 2.86364ZM4.45455 2.86364C3.69091 2.86364 3.12518 3.27345 2.76373 3.78191C2.40673 4.28273 2.22727 4.90445 2.22727 5.40909C2.22727 5.99709 2.58045 6.40564 3.01382 6.65127C3.44018 6.89309 3.97473 7 4.45455 7C4.93373 7 5.46891 6.89373 5.89527 6.65127C6.328 6.40564 6.68182 5.99709 6.68182 5.40909C6.68182 4.90445 6.50236 4.28273 6.14536 3.78191C5.78455 3.27282 5.21882 2.86364 4.45455 2.86364ZM7.95455 2.86364C7.63955 2.86364 7.39264 3.05518 7.23991 3.28491C7.08527 3.51655 7 3.81882 7 4.13636C7 4.45455 7.08527 4.75618 7.23991 4.98782C7.39264 5.21691 7.63955 5.40909 7.95455 5.40909C8.26955 5.40909 8.51646 5.21755 8.66918 4.98782C8.82382 4.75618 8.90909 4.45391 8.90909 4.13636C8.90909 3.81818 8.82382 3.51655 8.66918 3.28491C8.51646 3.05582 8.26955 2.86364 7.95455 2.86364Z" fill="white"/>
</svg>
