<svg width="45" height="43" viewBox="0 0 45 43" fill="none" xmlns="http://www.w3.org/2000/svg">
<path d="M4.46005 20.7198C3.081 20.3853 2.03563 19.6322 1.32393 18.4604C0.612244 17.2885 0.424181 16.0108 0.759746 14.6271C1.09531 13.2434 1.8478 12.1937 3.01723 11.478C4.18665 10.7624 5.46089 10.5718 6.83994 10.9062L8.25895 5.05492C8.52312 3.96562 9.13635 3.12722 10.0987 2.53972C11.0597 1.9502 12.0831 1.78707 13.1687 2.05035L21.4454 4.05756C21.781 2.67385 22.5335 1.62417 23.7029 0.908535C24.8724 0.192896 26.1466 0.00229435 27.5256 0.336729C28.9047 0.671164 29.9501 1.4243 30.6617 2.59613C31.3734 3.76796 31.5615 5.04573 31.2259 6.42944L39.5027 8.43664C40.5883 8.69992 41.4233 9.3137 42.0075 10.278C42.5938 11.241 42.7548 12.2672 42.4907 13.3565L41.0717 19.2078C42.4507 19.5423 43.4961 20.2954 44.2078 21.4672C44.9195 22.639 45.1075 23.9168 44.772 25.3005C44.4364 26.6842 43.6839 27.7339 42.5145 28.4495C41.3451 29.1652 40.0708 29.3558 38.6918 29.0214L36.0828 39.7794C35.8186 40.8687 35.2054 41.7071 34.2431 42.2946C33.282 42.8842 32.2587 43.0473 31.1731 42.784L4.83908 36.3977C3.75345 36.1344 2.9185 35.5207 2.33425 34.5564C1.74798 33.5933 1.58692 32.5672 1.85109 31.4779L4.46005 20.7198ZM15.1281 19.4104C15.8046 19.5744 16.4402 19.4766 17.0348 19.1169C17.6279 18.7567 18.0069 18.2365 18.1719 17.5561C18.3365 16.8773 18.2399 16.24 17.8822 15.6441C17.5241 15.0498 17.0059 14.6704 16.3278 14.506C15.6514 14.3419 15.0158 14.4398 14.4211 14.7995C13.8281 15.1596 13.449 15.6799 13.284 16.3603C13.1194 17.0391 13.216 17.6764 13.5737 18.2723C13.9319 18.8666 14.45 19.2459 15.1281 19.4104ZM29.7988 22.9682C30.4753 23.1323 31.1109 23.0344 31.7056 22.6747C32.2986 22.3146 32.6776 21.7943 32.8426 21.1139C33.0073 20.4351 32.9107 19.7978 32.5529 19.2019C32.1948 18.6076 31.6767 18.2283 30.9986 18.0638C30.3221 17.8998 29.6865 17.9976 29.0918 18.3573C28.4988 18.7175 28.1198 19.2377 27.9548 19.9181C27.7902 20.5969 27.8867 21.2342 28.2445 21.8301C28.6026 22.4244 29.1207 22.8038 29.7988 22.9682ZM11.5305 28.9286L28.6464 33.0794L29.2414 30.626L12.1255 26.4752L11.5305 28.9286ZM5.43405 33.9443L31.768 40.3306C32.2065 40.437 32.6011 40.3828 32.9517 40.1683C33.3023 39.9537 33.531 39.6264 33.6377 39.1865L40.0456 12.7635C40.1522 12.3236 40.0989 11.9279 39.8855 11.5766C39.6721 11.2252 39.3462 10.9964 38.9077 10.89L12.5737 4.50374C12.1352 4.3974 11.7407 4.45151 11.3901 4.66608C11.0394 4.88065 10.8108 5.20792 10.7041 5.64789L4.29621 32.0708C4.18951 32.5108 4.24286 32.9065 4.45624 33.2578C4.66962 33.6092 4.99556 33.838 5.43405 33.9443Z" fill="white"/>
</svg>
