<svg width="274" height="94" viewBox="0 0 274 94" fill="none" xmlns="http://www.w3.org/2000/svg">
<path d="M0.827861 52.4589C0.405712 52.8138 0.352141 53.4446 0.708207 53.8678C1.06427 54.291 1.69514 54.3464 2.11729 53.9915L0.827861 52.4589ZM268.568 93.3046C269.07 93.5356 269.664 93.3161 269.893 92.8144L273.633 84.639C273.863 84.1373 273.642 83.5434 273.139 83.3124C272.637 83.0814 272.044 83.3008 271.814 83.8025L268.49 91.0696L261.214 87.7236C260.711 87.4927 260.118 87.7121 259.889 88.2138C259.659 88.7155 259.88 89.3094 260.382 89.5404L268.568 93.3046ZM2.11729 53.9915C3.9862 52.4204 5.85888 50.8883 7.73481 49.3948L6.48647 47.8286C4.59659 49.3332 2.71022 50.8765 0.827861 52.4589L2.11729 53.9915ZM19.2411 40.7402C23.2244 37.9158 27.2176 35.2592 31.2159 32.7665L30.1544 31.0684C26.1222 33.5822 22.0962 36.2606 18.0813 39.1075L19.2411 40.7402ZM43.6425 25.5477C47.9495 23.2261 52.2565 21.089 56.5578 19.1313L55.7251 17.3105C51.3826 19.2869 47.0355 21.4439 42.6897 23.7865L43.6425 25.5477ZM69.8689 13.6307C74.4355 11.9329 78.9886 10.433 83.521 9.12471L82.9613 7.20294C78.3806 8.52518 73.7802 10.0408 69.1673 11.7557L69.8689 13.6307ZM97.4895 5.67762C102.261 4.69912 107.001 3.93055 111.701 3.36443L111.456 1.37868C106.702 1.95141 101.908 2.72881 97.0824 3.71825L97.4895 5.67762ZM126.025 2.25328C130.885 2.08587 135.691 2.13521 140.432 2.39255L140.534 0.395403C135.734 0.134849 130.87 0.0849464 125.95 0.254378L126.025 2.25328ZM154.733 3.8212C159.532 4.52354 164.25 5.44284 168.874 6.56917L169.342 4.62597C164.657 3.4848 159.878 2.55358 155.017 1.8422L154.733 3.8212ZM182.671 10.6352C187.239 12.2229 191.694 14.0208 196.025 16.018L196.858 14.2021C192.468 12.1775 187.952 10.3552 183.323 8.74613L182.671 10.6352ZM208.78 22.6861C212.936 25.1297 216.948 27.7701 220.801 30.5958L221.981 28.9839C218.072 26.1181 214.004 23.4404 209.79 20.9627L208.78 22.6861ZM231.96 39.6927C235.524 42.9186 238.913 46.3223 242.112 49.8918L243.6 48.5592C240.354 44.9373 236.915 41.484 233.299 38.2114L231.96 39.6927ZM251.137 61.1007C253.938 64.9848 256.536 69.0222 258.916 73.201L260.653 72.2148C258.237 67.9734 255.601 63.8756 252.758 59.9338L251.137 61.1007ZM265.354 86.0657C266.308 88.2603 267.207 90.4865 268.047 92.7428L269.921 92.0496C269.068 89.7595 268.156 87.5 267.188 85.2724L265.354 86.0657ZM0.827861 52.4589C0.405712 52.8138 0.352141 53.4446 0.708207 53.8678C1.06427 54.291 1.69514 54.3464 2.11729 53.9915L0.827861 52.4589ZM268.568 93.3046C269.07 93.5356 269.664 93.3161 269.893 92.8144L273.633 84.639C273.863 84.1373 273.642 83.5434 273.139 83.3124C272.637 83.0814 272.044 83.3008 271.814 83.8025L268.49 91.0696L261.214 87.7236C260.711 87.4927 260.118 87.7121 259.889 88.2138C259.659 88.7155 259.88 89.3094 260.382 89.5404L268.568 93.3046ZM2.11729 53.9915C3.9862 52.4204 5.85888 50.8883 7.73481 49.3948L6.48647 47.8286C4.59659 49.3332 2.71022 50.8765 0.827861 52.4589L2.11729 53.9915ZM19.2411 40.7402C23.2244 37.9158 27.2176 35.2592 31.2159 32.7665L30.1544 31.0684C26.1222 33.5822 22.0962 36.2606 18.0813 39.1075L19.2411 40.7402ZM43.6425 25.5477C47.9495 23.2261 52.2565 21.089 56.5578 19.1313L55.7251 17.3105C51.3826 19.2869 47.0355 21.4439 42.6897 23.7865L43.6425 25.5477ZM69.8689 13.6307C74.4355 11.9329 78.9886 10.433 83.521 9.12471L82.9613 7.20294C78.3806 8.52518 73.7802 10.0408 69.1673 11.7557L69.8689 13.6307ZM97.4895 5.67762C102.261 4.69912 107.001 3.93055 111.701 3.36443L111.456 1.37868C106.702 1.95141 101.908 2.72881 97.0824 3.71825L97.4895 5.67762ZM126.025 2.25328C130.885 2.08587 135.691 2.13521 140.432 2.39255L140.534 0.395403C135.734 0.134849 130.87 0.0849464 125.95 0.254378L126.025 2.25328ZM154.733 3.8212C159.532 4.52354 164.25 5.44284 168.874 6.56917L169.342 4.62597C164.657 3.4848 159.878 2.55358 155.017 1.8422L154.733 3.8212ZM182.671 10.6352C187.239 12.2229 191.694 14.0208 196.025 16.018L196.858 14.2021C192.468 12.1775 187.952 10.3552 183.323 8.74613L182.671 10.6352ZM208.78 22.6861C212.936 25.1297 216.948 27.7701 220.801 30.5958L221.981 28.9839C218.072 26.1181 214.004 23.4404 209.79 20.9627L208.78 22.6861ZM231.96 39.6927C235.524 42.9186 238.913 46.3223 242.112 49.8918L243.6 48.5592C240.354 44.9373 236.915 41.484 233.299 38.2114L231.96 39.6927ZM251.137 61.1007C253.938 64.9848 256.536 69.0222 258.916 73.201L260.653 72.2148C258.237 67.9734 255.601 63.8756 252.758 59.9338L251.137 61.1007ZM265.354 86.0657C266.308 88.2603 267.207 90.4865 268.047 92.7428L269.921 92.0496C269.068 89.7595 268.156 87.5 267.188 85.2724L265.354 86.0657Z" fill="white"/>
</svg>
