<svg width="43" height="85" viewBox="0 0 43 85" fill="none" xmlns="http://www.w3.org/2000/svg">
<path d="M0.687119 1.96711C0.19938 1.70802 0.0140275 1.10259 0.273122 0.614853C0.532216 0.127115 1.13764 -0.0582382 1.62538 0.200856L0.687119 1.96711ZM22.0902 84.495C21.5645 84.6642 21.0011 84.3753 20.8319 83.8496L18.0736 75.2827C17.9043 74.757 18.1933 74.1936 18.719 74.0243C19.2447 73.8551 19.8081 74.144 19.9773 74.6697L22.4291 82.2847L30.0442 79.833C30.5699 79.6637 31.1333 79.9527 31.3025 80.4784C31.4718 81.0041 31.1828 81.5675 30.6571 81.7367L22.0902 84.495ZM1.62538 0.200856C3.26787 1.07337 4.85593 1.91814 6.39014 2.73775L5.44773 4.50181C3.91556 3.68328 2.32908 2.83935 0.687119 1.96711L1.62538 0.200856ZM15.9066 7.90183C19.3797 9.83126 22.4878 11.6284 25.2438 13.3445L24.1867 15.0422C21.4693 13.3502 18.3926 11.5708 14.9353 9.65016L15.9066 7.90183ZM34.1589 19.6721C37.4375 22.4575 39.7606 25.2476 41.1371 28.3275L39.3112 29.1436C38.0963 26.4254 36.0031 23.8632 32.8639 21.1963L34.1589 19.6721ZM42.3237 39.4378C41.8346 42.5763 40.7831 46.04 39.243 49.9655L37.3811 49.235C38.8927 45.3825 39.8894 42.0693 40.3475 39.1298L42.3237 39.4378ZM34.8613 59.8867C33.4363 62.8714 31.8295 66.0961 30.0543 69.5956L28.2707 68.6909C30.0425 65.1978 31.6413 61.989 33.0564 59.025L34.8613 59.8867ZM25.1394 79.1982C24.3412 80.7513 23.5191 82.3509 22.6735 83.9995L20.8939 83.0867C21.74 81.4372 22.5625 79.8369 23.3606 78.2839L25.1394 79.1982ZM0.687119 1.96711C0.19938 1.70802 0.0140275 1.10259 0.273122 0.614853C0.532216 0.127115 1.13764 -0.0582382 1.62538 0.200856L0.687119 1.96711ZM22.0902 84.495C21.5645 84.6642 21.0011 84.3753 20.8319 83.8496L18.0736 75.2827C17.9043 74.757 18.1933 74.1936 18.719 74.0243C19.2447 73.8551 19.8081 74.144 19.9773 74.6697L22.4291 82.2847L30.0442 79.833C30.5699 79.6637 31.1333 79.9527 31.3025 80.4784C31.4718 81.0041 31.1828 81.5675 30.6571 81.7367L22.0902 84.495ZM1.62538 0.200856C3.26787 1.07337 4.85593 1.91814 6.39014 2.73775L5.44773 4.50181C3.91556 3.68328 2.32908 2.83935 0.687119 1.96711L1.62538 0.200856ZM15.9066 7.90183C19.3797 9.83126 22.4878 11.6284 25.2438 13.3445L24.1867 15.0422C21.4693 13.3502 18.3926 11.5708 14.9353 9.65016L15.9066 7.90183ZM34.1589 19.6721C37.4375 22.4575 39.7606 25.2476 41.1371 28.3275L39.3112 29.1436C38.0963 26.4254 36.0031 23.8632 32.8639 21.1963L34.1589 19.6721ZM42.3237 39.4378C41.8346 42.5763 40.7831 46.04 39.243 49.9655L37.3811 49.235C38.8927 45.3825 39.8894 42.0693 40.3475 39.1298L42.3237 39.4378ZM34.8613 59.8867C33.4363 62.8714 31.8295 66.0961 30.0543 69.5956L28.2707 68.6909C30.0425 65.1978 31.6413 61.989 33.0564 59.025L34.8613 59.8867ZM25.1394 79.1982C24.3412 80.7513 23.5191 82.3509 22.6735 83.9995L20.8939 83.0867C21.74 81.4372 22.5625 79.8369 23.3606 78.2839L25.1394 79.1982Z" fill="white"/>
</svg>
