<svg width="18" height="18" viewBox="0 0 18 18" fill="none" xmlns="http://www.w3.org/2000/svg">
<path fill-rule="evenodd" clip-rule="evenodd" d="M0 11.7692C0 12.3201 0.218818 12.8483 0.608317 13.2378C0.997815 13.6273 1.52609 13.8462 2.07692 13.8462H4.15385V12.4615H2.07692C1.89331 12.4615 1.71722 12.3886 1.58739 12.2588C1.45755 12.1289 1.38462 11.9528 1.38462 11.7692V2.07692C1.38462 1.89331 1.45755 1.71722 1.58739 1.58739C1.71722 1.45755 1.89331 1.38462 2.07692 1.38462H11.7692C11.9528 1.38462 12.1289 1.45755 12.2588 1.58739C12.3886 1.71722 12.4615 1.89331 12.4615 2.07692V4.15385H6.23077C5.67993 4.15385 5.15166 4.37266 4.76216 4.76216C4.37266 5.15166 4.15385 5.67993 4.15385 6.23077V15.9231C4.15385 16.4739 4.37266 17.0022 4.76216 17.3917C5.15166 17.7812 5.67993 18 6.23077 18H15.9231C16.4739 18 17.0022 17.7812 17.3917 17.3917C17.7812 17.0022 18 16.4739 18 15.9231V6.23077C18 5.67993 17.7812 5.15166 17.3917 4.76216C17.0022 4.37266 16.4739 4.15385 15.9231 4.15385H13.8462V2.07692C13.8462 1.52609 13.6273 0.997815 13.2378 0.608317C12.8483 0.218818 12.3201 0 11.7692 0H2.07692C1.52609 0 0.997815 0.218818 0.608317 0.608317C0.218818 0.997815 0 1.52609 0 2.07692V11.7692ZM5.53846 6.23077C5.53846 6.04716 5.6114 5.87107 5.74123 5.74123C5.87107 5.6114 6.04716 5.53846 6.23077 5.53846H15.9231C16.1067 5.53846 16.2828 5.6114 16.4126 5.74123C16.5424 5.87107 16.6154 6.04716 16.6154 6.23077V15.9231C16.6154 16.1067 16.5424 16.2828 16.4126 16.4126C16.2828 16.5424 16.1067 16.6154 15.9231 16.6154H6.23077C6.04716 16.6154 5.87107 16.5424 5.74123 16.4126C5.6114 16.2828 5.53846 16.1067 5.53846 15.9231V6.23077Z" fill="white"/>
</svg>
