<svg width="59" height="64" viewBox="0 0 59 64" fill="none" xmlns="http://www.w3.org/2000/svg">
<path d="M32.3836 28.8659C34.3008 28.371 35.7665 27.2651 36.7808 25.5482C37.7951 23.8314 38.0533 22.0135 37.5555 20.0946C37.0606 18.1774 35.955 16.7128 34.2387 15.7008C32.5225 14.6889 30.7043 14.4295 28.7842 14.9227C26.867 15.4176 25.4027 16.5243 24.3914 18.2429C23.38 19.9615 23.1203 21.7785 23.6123 23.694C24.1072 25.6112 25.2142 27.0766 26.9334 28.0903C28.6526 29.104 30.4693 29.3625 32.3836 28.8659ZM27.8811 63.491L26.9812 60.0052L37.8395 57.2022L34.4614 44.1165C31.25 44.3605 28.2322 43.7701 25.4079 42.3451C22.5837 40.9202 20.3518 38.828 18.7124 36.0685C14.9152 36.5877 11.3822 35.8886 8.11355 33.9711C4.84658 32.0506 2.74128 29.2627 1.79764 25.6073L0.897788 22.1215C0.656628 21.1873 0.793781 20.2831 1.30925 19.4089C1.82704 18.5341 2.55187 17.9764 3.48374 17.7358L12.7351 15.3476L10.9354 8.37602L41.2339 0.554532L43.0336 7.52613L52.2849 5.13793C53.2191 4.89678 54.1233 5.03393 54.9975 5.54939C55.8723 6.06718 56.43 6.79202 56.6706 7.72389L57.5704 11.2097C58.5141 14.8651 58.0213 18.3237 56.0921 21.5855C54.16 24.8456 51.4069 27.1675 47.8328 28.5512C47.7369 31.7611 46.7978 34.6719 45.0156 37.2835C43.2316 39.898 40.8755 41.8758 37.9472 43.2167L41.3253 56.3024L52.1835 53.4993L53.0834 56.9851L27.8811 63.491ZM17.1578 32.4803L13.6349 18.8334L4.38359 21.2216L5.28344 24.7074C5.96852 27.3613 7.44272 29.4136 9.70602 30.8644C11.9664 32.3134 14.4503 32.8521 17.1578 32.4803ZM35.3261 40.2644C38.5446 39.4336 40.9823 37.6133 42.639 34.8035C44.2975 31.9909 44.7116 28.9764 43.8813 25.7602L38.5155 4.97438L15.4535 10.9278L20.8184 31.7101C21.6486 34.9263 23.4701 37.3637 26.2827 39.0221C29.0925 40.6789 32.1066 41.0918 35.3252 40.261M47.4564 24.6588C50.0032 23.6742 51.9157 21.9994 53.194 19.6344C54.4728 17.2717 54.7697 14.7634 54.0846 12.1095L53.1848 8.62373L43.9335 11.0119L47.4564 24.6588Z" fill="white"/>
</svg>
