<svg width="72" height="66" viewBox="0 0 72 66" fill="none" xmlns="http://www.w3.org/2000/svg">
<path d="M25.2446 1.21519C32.1575 3.14285 37.1998 8.08994 38.9322 14.4388C43.7 9.90251 50.5747 8.27848 57.4875 10.2061C62.4438 11.5946 66.6471 14.8923 69.1753 19.3757C71.7035 23.8591 72.3503 29.1622 70.9737 34.1218C68.4032 43.3401 59.913 51.3559 45.7729 57.9492C39.2522 60.9643 32.4559 63.3435 25.4785 65.0538C25.2619 65.1029 25.0366 65.0974 24.8227 65.0378C24.6088 64.9781 24.4131 64.8662 24.2532 64.7121C19.1676 59.6381 14.5831 54.0853 10.5636 48.1311C1.8756 35.1722 -1.24163 23.9196 1.32888 14.7014C2.71737 9.74506 6.01499 5.54183 10.4984 3.01361C14.9818 0.485397 20.2849 -0.161366 25.2446 1.21519ZM25.5941 62.2713C30.8238 60.9635 63.1732 52.126 68.3943 33.4025C69.581 29.127 69.0235 24.5553 66.844 20.6903C64.6645 16.8253 61.041 13.9825 56.7683 12.7856C49.9618 10.8876 43.225 12.9393 39.1865 18.1377C39.0234 18.3471 38.8017 18.5034 38.5496 18.5865C38.2974 18.6697 38.0263 18.676 37.7706 18.6047C37.5148 18.5334 37.2861 18.3876 37.1134 18.186C36.9406 17.9844 36.8318 17.736 36.8006 17.4723C36.0348 10.9343 31.3318 5.69262 24.5253 3.79463C20.2497 2.60791 15.6781 3.16545 11.813 5.34495C7.94804 7.52445 5.10527 11.148 3.90831 15.4206C-1.30644 34.1216 21.7958 58.446 25.5941 62.2713Z" fill="white"/>
</svg>
