<svg width="42" height="38" viewBox="0 0 42 38" fill="none" xmlns="http://www.w3.org/2000/svg">
<path d="M27.0546 0.974311C23.112 2.0737 20.2362 4.89515 19.2482 8.51608C16.529 5.9289 12.6082 5.00268 8.6656 6.10207C5.8389 6.89397 3.44169 8.77468 1.99979 11.3317C0.557883 13.8887 0.189018 16.9132 0.9741 19.7418C2.44013 24.9992 7.28231 29.5708 15.3467 33.3311C19.0656 35.0507 22.9417 36.4076 26.9211 37.383C27.0446 37.411 27.1732 37.4079 27.2952 37.3739C27.4171 37.3399 27.5287 37.276 27.6199 37.1882C30.5204 34.2943 33.135 31.1274 35.4275 27.7316C40.3824 20.3408 42.1603 13.9232 40.6942 8.6658C39.9024 5.83911 38.0216 3.4419 35.4646 1.99999C32.9077 0.558093 29.8831 0.189228 27.0546 0.974311ZM26.8552 35.7961C23.8726 35.0502 5.42291 30.01 2.44522 19.3315C1.7684 16.8931 2.08638 14.2858 3.3294 12.0814C4.57243 9.87714 6.639 8.25584 9.07582 7.57319C12.9577 6.49072 16.7999 7.66084 19.1031 10.6256C19.1961 10.7451 19.3226 10.8342 19.4664 10.8816C19.6102 10.929 19.7648 10.9326 19.9107 10.892C20.0565 10.8513 20.187 10.7682 20.2855 10.6532C20.384 10.5382 20.4461 10.3965 20.4639 10.2462C20.9006 6.51735 23.5829 3.5279 27.4648 2.44543C29.9032 1.76861 32.5106 2.08659 34.7149 3.32961C36.9192 4.57264 38.5405 6.63921 39.2231 9.07602C42.1972 19.7416 29.0215 33.6144 26.8552 35.7961Z" fill="white"/>
</svg>
