<svg width="88" height="88" viewBox="0 0 88 88" fill="none" xmlns="http://www.w3.org/2000/svg">
<path fill-rule="evenodd" clip-rule="evenodd" d="M70.2629 52.7746L71.9176 48.5899C72.2137 47.841 71.8466 46.9937 71.0977 46.6976C70.3487 46.4014 69.5015 46.7685 69.2053 47.5175L67.5507 51.7022C67.2545 52.4511 67.6216 53.2984 68.3706 53.5945C69.1196 53.8907 69.9668 53.5236 70.2629 52.7746ZM71.8331 44.8377C70.0569 44.1354 68.0477 45.0059 67.3454 46.7821L65.6908 50.9667C64.9885 52.7429 65.859 54.7521 67.6352 55.4544C69.4113 56.1567 71.4205 55.2862 72.1228 53.51L73.7775 49.3253C74.4798 47.5492 73.6092 45.54 71.8331 44.8377Z" fill="white"/>
<path d="M30.4632 35.4537L31.7193 26.5136C31.7626 26.2061 31.8767 25.913 32.0529 25.6573L38.4942 16.3072C38.6704 16.0515 38.7846 15.7583 38.8278 15.4508L40.1535 6.01562C40.3072 4.9218 41.3185 4.15967 42.4123 4.31336L79.0524 9.46156C80.1462 9.61525 80.9084 10.6266 80.7547 11.7204L79.429 21.1556C79.3858 21.463 79.4147 21.7763 79.5136 22.0707L83.1382 32.8615C83.2311 33.1381 83.2624 33.4316 83.2298 33.7215L77.4805 84.9213C77.3548 86.0406 76.3301 86.8354 75.2147 86.6787L46.0575 82.5819M46.0575 82.5819L3.40279 76.5886C2.15729 76.4136 1.38054 75.1461 1.79005 73.9569L6.43376 60.4718C6.74548 59.5666 7.65499 59.0093 8.60306 59.1425L43.4635 64.0406C44.4116 64.1738 45.1323 64.9602 45.1825 65.9163L46.0575 82.5819Z" stroke="white" stroke-width="2"/>
<path d="M11.0016 58.9736C12.515 56.6229 11.6278 54.5174 14.8769 52.9543M20.6712 51.2439C22.3653 49.9672 23.9809 53.4469 26.265 54.5544C28.6091 55.691 29.9133 56.5817 32.4931 56.9442C35.0728 57.3067 36.7256 55.3811 39.1385 56.3632C42.2184 57.6168 43.6806 63.5653 43.6806 63.5653" stroke="white" stroke-width="2"/>
<path d="M29.8369 39.9102L27.6802 55.2594" stroke="white" stroke-width="2"/>
<path d="M44.5479 10.6738L63.363 13.3175" stroke="white" stroke-width="2" stroke-linecap="round"/>
<path d="M67.3242 13.873L75.7415 15.0557" stroke="white" stroke-width="2" stroke-linecap="round"/>
<path d="M60.8955 77.5977L69.808 78.8499" stroke="white" stroke-width="2" stroke-linecap="round"/>
<rect x="48.287" y="34.7085" width="4.91659" height="9.4165" rx="2.4583" transform="rotate(5.25624 48.287 34.7085)" stroke="white" stroke-width="2"/>
<rect x="59.1796" y="36.2378" width="4.91659" height="9.4165" rx="2.4583" transform="rotate(5.25624 59.1796 36.2378)" stroke="white" stroke-width="2"/>
<path d="M40.9791 57.6341C40.9791 57.6341 42.7291 57.3747 47.4773 54.5078C50.3531 52.7715 52.0309 48.3313 55.3136 49.045C58.2941 49.693 58.7756 53.7044 60.3509 56.3162C62.8416 60.4459 67.7164 61.3909 63.9108 66.9151C60.1051 72.4393 57.1196 65.9609 53.0178 65.3845C47.5713 64.6193 45.6685 67.3809 45.6685 67.3809" stroke="white" stroke-width="2" stroke-linecap="round"/>
<rect x="37.7545" y="41.6012" width="4.91659" height="9.4165" rx="2.4583" transform="rotate(-6.39049 37.7545 41.6012)" stroke="white" stroke-width="2"/>
</svg>
