<svg width="61" height="61" viewBox="0 0 61 61" fill="none" xmlns="http://www.w3.org/2000/svg">
<path d="M47.3823 35.5799L47.3834 35.5796L59.1892 31.6443C59.4254 31.5613 59.6301 31.4073 59.7753 31.2033C59.9215 30.9979 60 30.7521 60 30.5C60 30.2479 59.9215 30.0021 59.7753 29.7967C59.6301 29.5927 59.4254 29.4387 59.1892 29.3557L47.3842 25.4207C41.8048 23.5663 37.4343 19.1959 35.5796 13.6166L47.3823 35.5799ZM47.3823 35.5799C44.6355 36.499 42.1397 38.0434 40.0916 40.0915C38.0434 42.1397 36.499 44.6355 35.5799 47.3823L35.5796 47.3834L31.6443 59.1892C31.5613 59.4253 31.4073 59.6301 31.2033 59.7753C30.9979 59.9215 30.7521 60 30.5 60C30.2479 60 30.0021 59.9215 29.7967 59.7753C29.5927 59.6301 29.4387 59.4253 29.3557 59.1891L25.4204 47.3834L25.4201 47.3823C24.501 44.6355 22.9566 42.1397 20.9085 40.0915C18.8603 38.0434 16.3645 36.499 13.6177 35.5799L13.6166 35.5796L1.81084 31.6443C1.57467 31.5613 1.36991 31.4073 1.22471 31.2033C1.07854 30.9979 1 30.7521 1 30.5C1 30.2479 1.07854 30.0021 1.22471 29.7967C1.3699 29.5927 1.57465 29.4387 1.81081 29.3557L13.6158 25.4207C19.1955 23.5662 23.5662 19.1955 25.4207 13.6158L29.3557 1.8108C29.4387 1.57464 29.5927 1.3699 29.7967 1.22472C30.0021 1.07855 30.2479 1 30.5 1C30.7521 1 30.9979 1.07854 31.2033 1.22472C31.4073 1.3699 31.5613 1.57462 31.6443 1.81077L35.5793 13.6158L47.3823 35.5799Z" stroke="white" stroke-width="2"/>
</svg>
