<svg width="75" height="85" viewBox="0 0 75 85" fill="none" xmlns="http://www.w3.org/2000/svg">
<path d="M27.1535 30.0316L27.1529 30.0332L23.5248 41.0075C23.5247 41.0077 23.5247 41.0078 23.5247 41.008L23.5245 41.0085L22.575 40.6946C21.7796 43.1091 20.4355 45.303 18.6499 47.1019C16.8643 48.9007 14.6864 50.2547 12.2897 51.056L27.1535 30.0316ZM27.1535 30.0316C27.2227 29.8209 27.3556 29.639 27.532 29.5107C27.7082 29.3824 27.9192 29.314 28.1349 29.314C28.3506 29.314 28.5616 29.3824 28.7378 29.5107C28.9141 29.639 29.0471 29.8209 29.1163 30.0316L29.1168 30.0332M27.1535 30.0316L29.1168 30.0332M29.1168 30.0332L32.7453 41.0085L32.7456 41.0093M29.1168 30.0332L32.7456 41.0093M32.7456 41.0093C34.4658 46.1982 38.5045 50.2688 43.6611 52.0038L43.6619 52.0041M32.7456 41.0093L43.6619 52.0041M43.6619 52.0041L54.5567 55.6594L54.5583 55.6599M43.6619 52.0041L54.5583 55.6599M54.5583 55.6599C54.7636 55.7284 54.9436 55.8608 55.0718 56.0396C55.2001 56.2186 55.2698 56.4346 55.2698 56.657C55.2698 56.8794 55.2001 57.0954 55.0718 57.2744C54.9436 57.4532 54.7636 57.5856 54.5583 57.6541L54.5567 57.6546M54.5583 55.6599L54.5567 57.6546M54.5567 57.6546L43.6629 61.3096L54.5567 57.6546ZM29.1163 83.2824L29.1168 83.2808L32.745 72.3065L29.1163 83.2824ZM29.1163 83.2824C29.0471 83.493 28.9141 83.675 28.7378 83.8033C28.5616 83.9316 28.3506 84 28.1349 84C27.9192 84 27.7082 83.9316 27.532 83.8033C27.3556 83.675 27.2227 83.493 27.1535 83.2824L27.1529 83.2808M29.1163 83.2824L27.1529 83.2808M27.1529 83.2808L23.5248 72.3065M27.1529 83.2808L23.5248 72.3065M36.9101 65.5076C38.8052 63.5985 41.1171 62.161 43.6619 61.3099L36.9101 65.5076ZM36.9101 65.5076C35.0151 67.4167 33.5892 69.7445 32.7453 72.3055L36.9101 65.5076ZM23.5248 72.3065C22.681 69.7451 21.2549 67.4169 19.3596 65.5076C17.4646 63.5985 15.1527 62.161 12.6078 61.3099L23.5248 72.3065ZM1.71309 55.6594L12.6068 52.0044V61.3096L1.71309 57.6546L1.71144 57.6541C1.50614 57.5856 1.32615 57.4532 1.19792 57.2744C1.06962 57.0954 1 56.8794 1 56.657C1 56.4346 1.06962 56.2186 1.19792 56.0396C1.32616 55.8608 1.50615 55.7284 1.71144 55.6599L1.71309 55.6594ZM66.5106 21.6591L66.5095 21.6595C64.7646 22.2476 63.1797 23.2358 61.8796 24.5455C60.5796 25.8552 59.5997 27.4506 59.0168 29.2058L59.0165 29.2068L56.5999 36.5101C56.5742 36.582 56.5278 36.6432 56.468 36.686C56.4072 36.7296 56.3353 36.7525 56.2624 36.7525C56.1894 36.7525 56.1176 36.7296 56.0568 36.686C55.997 36.6432 55.9505 36.582 55.9248 36.5101L53.5083 29.2068L53.5079 29.2058C52.925 27.4506 51.9452 25.8552 50.6451 24.5455C49.345 23.2358 47.7602 22.2476 46.0152 21.6595L46.0141 21.6591L38.7649 19.2248C38.6969 19.2002 38.6368 19.1548 38.5934 19.0934C38.5491 19.0307 38.5247 18.9548 38.5247 18.8762C38.5247 18.7977 38.5491 18.7218 38.5934 18.6591C38.6368 18.5977 38.6969 18.5523 38.7649 18.5277L46.0133 16.0936C49.5584 14.9066 52.3321 12.1104 53.5085 8.54506C53.5085 8.54498 53.5085 8.5449 53.5086 8.54482L55.9248 1.24239C55.9505 1.17044 55.997 1.10931 56.0568 1.06644C56.1175 1.02286 56.1894 1 56.2624 1C56.3353 1 56.4072 1.02286 56.468 1.06644C56.5278 1.10931 56.5742 1.17044 56.5999 1.24239L59.0162 8.54482C59.0162 8.5449 59.0162 8.54498 59.0163 8.54506C60.1926 12.1104 62.9663 14.9066 66.5114 16.0936L73.7561 18.5263C73.7574 18.5268 73.7586 18.5272 73.7599 18.5277C73.8278 18.5523 73.888 18.5977 73.9314 18.6591C73.9757 18.7218 74 18.7977 74 18.8762C74 18.9548 73.9757 19.0307 73.9314 19.0934C73.888 19.1548 73.8278 19.2002 73.7599 19.2248C73.7586 19.2253 73.7574 19.2257 73.7561 19.2262L66.5106 21.6591Z" stroke="white" stroke-width="2"/>
</svg>
