<svg width="187" height="187" viewBox="0 0 187 187" fill="none" xmlns="http://www.w3.org/2000/svg">
<path d="M1.8229 78.2696C-1.15571 75.7153 -0.163952 70.8817 3.58026 69.7047L27.8414 62.0782C30.4502 61.2581 31.9169 58.4948 31.1336 55.8753L23.8567 31.5393C22.7331 27.7815 26.1775 24.2515 29.9623 25.2819L54.5261 31.9693C57.1615 32.6868 59.8857 31.1567 60.6444 28.5327L67.7035 4.11933C68.7923 0.354002 73.5932 -0.752769 76.2192 2.15619L93.2762 21.0507C95.1047 23.0761 98.2199 23.261 100.276 21.4662L119.449 4.7316C122.401 2.15444 127.036 3.81995 127.671 7.6864L131.791 32.7763C132.233 35.4699 134.755 37.3102 137.455 36.9109L162.647 33.1859C166.526 32.6123 169.525 36.523 167.964 40.1203L157.854 63.4271C156.766 65.9346 157.894 68.8503 160.385 69.9735L183.581 80.4308C187.158 82.0435 187.567 86.9596 184.306 89.1429L163.186 103.283C160.913 104.805 160.284 107.87 161.774 110.163L175.622 131.467C177.76 134.757 175.448 139.115 171.524 139.191L146.082 139.684C143.349 139.736 141.165 141.974 141.177 144.706L141.293 170.108C141.311 174.029 137.014 176.445 133.674 174.392L111.982 161.062C109.656 159.633 106.614 160.333 105.146 162.635L91.4782 184.081C89.3719 187.385 84.4555 187.094 82.756 183.564L71.7204 160.64C70.5369 158.182 67.6001 157.127 65.1216 158.27L42.0001 168.932C38.4403 170.574 34.4627 167.668 34.9446 163.779L38.0691 138.559C38.405 135.849 36.5032 133.371 33.7978 132.994L8.58242 129.483C4.69718 128.942 2.92083 124.342 5.43366 121.329L21.7071 101.818C23.4587 99.718 23.1986 96.6009 21.1232 94.8211L1.8229 78.2696Z" fill="url(#paint0_linear_3474_94)"/>
<defs>
<linearGradient id="paint0_linear_3474_94" x1="99.4437" y1="282.348" x2="189.928" y2="112.286" gradientUnits="userSpaceOnUse">
<stop stop-color="#DECAFF"/>
<stop offset="1" stop-color="#691EE2"/>
</linearGradient>
</defs>
</svg>
